<svg version="1.1" id="Layer_1" xmlns="http://www.w3.org/2000/svg" xmlns:xlink="http://www.w3.org/1999/xlink" x="0px" y="0px"
	 width="100%" viewBox="0 0 318 151" enable-background="new 0 0 318 151" xml:space="preserve">
<path fill="#FEFDFC" opacity="1.000000" stroke="none" 
	d="
M238.000000,152.000000 
	C158.666672,152.000000 79.833351,152.000000 1.000021,152.000000 
	C1.000014,101.666679 1.000014,51.333363 1.000007,1.000035 
	C106.999969,1.000023 212.999939,1.000023 318.999939,1.000012 
	C318.999939,51.333298 318.999939,101.666595 318.999969,151.999939 
	C292.166656,152.000000 265.333344,152.000000 238.000000,152.000000 
M250.843750,64.893700 
	C250.843750,67.302292 250.843750,69.710892 250.843750,72.585350 
	C249.330322,72.162369 248.578644,71.881882 247.801666,71.746490 
	C242.480774,70.819283 239.530670,73.431946 238.873260,79.619362 
	C237.901733,88.762955 240.390106,94.367424 245.652084,94.445076 
	C247.396835,94.470818 249.323135,92.955406 250.871048,93.338402 
	C254.177841,94.156601 254.502213,92.570999 254.472015,90.104431 
	C254.364594,81.329330 254.275391,72.554001 254.108673,63.092793 
	C253.079147,63.401482 252.049637,63.710171 250.843750,64.893700 
M40.756531,48.153000 
	C45.242428,49.170017 49.728325,50.187035 54.271519,51.217037 
	C52.902916,57.094105 51.645721,62.492764 50.217934,68.623993 
	C55.118126,68.623993 59.069744,68.703979 63.013016,68.558311 
	C63.827976,68.528206 65.043915,67.843887 65.343269,67.146828 
	C68.308388,60.242565 71.119400,53.272118 74.015373,46.219711 
	C62.970039,46.219711 51.529144,46.219711 39.298969,45.978207 
	C37.583549,45.978207 35.868130,45.978207 34.152710,45.978207 
	C34.112560,46.275047 34.072411,46.571888 34.032257,46.868725 
	C36.031952,47.223969 38.031647,47.579212 40.756531,48.153000 
M31.860689,89.023254 
	C37.862118,90.340401 43.938957,91.399338 49.823177,93.117813 
	C51.823505,93.702011 54.040920,95.609337 54.951077,97.495117 
	C58.515629,104.880623 62.790230,111.629700 69.329842,117.496078 
	C72.821045,113.199234 75.359367,108.139984 79.458603,105.588715 
	C83.350906,103.166237 88.876640,103.368263 93.306595,102.490982 
	C93.306595,99.920532 92.796379,97.357895 93.408752,95.099686 
	C94.853149,89.773201 93.769592,87.609032 88.297585,87.597046 
	C69.190514,87.555191 50.083000,87.716408 30.586885,87.352699 
	C30.111753,87.616577 29.636620,87.880463 29.161488,88.144348 
	C29.800827,88.397438 30.440166,88.650536 31.860689,89.023254 
M159.221008,77.739861 
	C155.150284,84.068230 148.218887,84.611771 141.979156,85.091705 
	C132.357376,85.831772 124.549820,89.785248 117.061111,95.342430 
	C112.366364,98.826286 108.976776,103.008789 105.773323,107.951538 
	C99.527061,117.589172 92.068810,126.441307 85.112457,135.618729 
	C87.511642,135.671875 89.137291,134.585846 90.927589,134.052826 
	C93.633987,133.247009 96.584328,131.973679 99.208015,132.371140 
	C134.966568,137.787964 166.239349,111.837914 167.230988,75.694382 
	C168.448563,31.316034 121.464607,1.502470 82.410538,21.885847 
	C80.955040,22.645512 79.610306,23.617399 78.213959,24.490387 
	C87.980721,25.531084 97.283737,25.261238 106.554977,25.685606 
	C109.572945,25.823746 112.570099,27.637169 115.458328,28.945793 
	C117.282951,29.772511 118.749657,31.549282 120.613716,32.103657 
	C136.272629,36.760662 146.987717,46.598877 152.306839,62.073006 
	C153.593536,65.816223 154.143372,69.685692 157.940170,72.161896 
	C159.054047,72.888344 159.013489,75.384911 159.221008,77.739861 
M136.509506,44.961239 
	C130.043335,41.723843 123.550285,38.538376 117.129272,35.213768 
	C115.453735,34.346226 113.576889,33.346252 112.539825,31.878920 
	C110.577431,29.102333 108.106110,29.190825 107.104797,31.637379 
	C105.725899,35.006527 103.145630,35.182457 100.533936,35.864178 
	C83.240173,40.378345 72.804451,51.403355 69.025391,68.845375 
	C68.733849,70.190971 68.046387,71.536194 67.236481,72.660889 
	C66.366188,73.869431 65.134117,74.817436 64.059914,75.879135 
	C65.409729,76.975563 66.634560,78.309593 68.143593,79.103340 
	C69.735359,79.940636 71.562057,80.488708 73.348320,80.774948 
	C95.460495,84.318329 117.652641,84.036049 139.838837,81.728737 
	C144.079178,81.287758 148.312378,80.026604 152.341248,78.569725 
	C154.998810,77.608727 156.433075,75.734016 153.269073,73.043304 
	C151.679840,71.691788 150.316742,69.543991 149.828232,67.520470 
	C147.734528,58.847530 143.776154,51.368862 136.509506,44.961239 
M55.507736,34.724400 
	C50.699394,34.724400 45.891052,34.724400 41.082710,34.724400 
	C53.929428,40.152458 67.186775,41.738636 80.671837,40.447571 
	C83.499191,40.176884 86.103394,37.575489 88.810425,36.048096 
	C88.636955,35.607132 88.463486,35.166164 88.290024,34.725197 
	C77.694885,34.725197 67.099747,34.725197 55.507736,34.724400 
M182.629059,82.675484 
	C185.166397,82.108795 187.723022,81.613350 190.230042,80.934685 
	C191.047623,80.713364 191.735931,80.014473 192.483383,79.533997 
	C191.749680,78.832176 191.073959,77.615601 190.271393,77.525223 
	C187.879318,77.255844 185.437454,77.428543 183.153687,77.428543 
	C181.715698,67.937881 181.715790,67.941795 190.001572,67.738586 
	C190.994095,67.714241 192.244064,67.957733 192.898941,67.456047 
	C193.479553,67.011246 193.398010,65.702072 193.608765,64.774467 
	C188.745621,64.851631 183.881699,64.907188 179.022232,65.084679 
	C178.827179,65.091805 178.526932,66.253403 178.524094,66.878227 
	C178.487122,75.027725 178.427994,83.178726 178.586411,91.325233 
	C178.603943,92.226395 179.928772,93.102135 180.647308,93.989670 
	C181.276657,93.028122 182.337250,92.114151 182.449646,91.095558 
	C182.721725,88.629890 182.551819,86.115456 182.629059,82.675484 
M230.080338,93.709435 
	C235.026611,89.658112 237.074265,80.944496 233.383636,75.894859 
	C231.729187,73.631203 227.882477,71.469917 225.336243,71.779114 
	C222.782257,72.089272 219.873047,75.139793 218.491959,77.723030 
	C217.299484,79.953468 217.724701,83.242989 217.979416,86.014252 
	C218.589920,92.656242 222.608887,95.348602 230.080338,93.709435 
M200.554626,92.973793 
	C206.323029,95.659485 211.547485,94.619743 212.921692,89.490433 
	C214.019806,85.391739 214.030304,80.476471 212.771393,76.474892 
	C212.053772,74.193916 207.774918,71.641716 205.189041,71.733391 
	C202.627487,71.824196 198.895004,74.589264 197.947205,77.054535 
	C195.981537,82.167252 195.748901,87.825150 200.554626,92.973793 
M288.728821,84.165871 
	C290.677551,84.165871 292.626251,84.165871 294.825806,84.165871 
	C294.908386,82.509521 295.050140,81.378822 295.006317,80.255363 
	C294.789886,74.708176 292.619354,72.095718 288.048004,71.792747 
	C282.960632,71.455574 280.230652,73.560669 279.416687,79.057297 
	C279.008636,81.813026 278.985626,84.746330 279.452057,87.486366 
	C280.481689,93.534927 286.700653,96.483231 291.991943,93.514793 
	C293.012970,92.941986 293.458527,91.343330 294.169556,90.217903 
	C293.018463,90.274811 291.783875,90.080757 290.730530,90.431320 
	C285.707275,92.103088 283.411072,90.372246 283.521942,84.444595 
	C284.935455,84.353249 286.383545,84.259666 288.728821,84.165871 
M274.203522,89.255440 
	C274.202362,84.458229 274.298920,79.657333 274.118164,74.866898 
	C274.081726,73.900841 272.994293,72.974426 272.391418,72.029732 
	C271.762482,73.006485 270.626282,73.964706 270.589813,74.963104 
	C270.402740,80.084389 270.389862,85.219978 270.576691,90.341072 
	C270.620239,91.534271 271.678833,92.690445 272.270386,93.863663 
	C272.914673,92.637550 273.558990,91.411438 274.203522,89.255440 
M266.405731,80.191406 
	C264.307251,80.012917 262.192230,79.626228 260.121063,79.791069 
	C259.548309,79.836655 258.447845,81.876984 258.724640,82.391693 
	C259.638947,84.091972 265.435944,82.921814 266.405731,80.191406 
z"/>
<path fill="#B3630D" opacity="1.000000" stroke="none" 
	d="
M159.361511,77.405029 
	C159.013489,75.384911 159.054047,72.888344 157.940170,72.161896 
	C154.143372,69.685692 153.593536,65.816223 152.306839,62.073006 
	C146.987717,46.598877 136.272629,36.760662 120.613716,32.103657 
	C118.749657,31.549282 117.282951,29.772511 115.458328,28.945793 
	C112.570099,27.637169 109.572945,25.823746 106.554977,25.685606 
	C97.283737,25.261238 87.980721,25.531084 78.213959,24.490387 
	C79.610306,23.617399 80.955040,22.645512 82.410538,21.885847 
	C121.464607,1.502470 168.448563,31.316034 167.230988,75.694382 
	C166.239349,111.837914 134.966568,137.787964 99.208015,132.371140 
	C96.584328,131.973679 93.633987,133.247009 90.927589,134.052826 
	C89.137291,134.585846 87.511642,135.671875 85.112457,135.618729 
	C92.068810,126.441307 99.527061,117.589172 105.773323,107.951538 
	C108.976776,103.008789 112.366364,98.826286 117.061111,95.342430 
	C124.549820,89.785248 132.357376,85.831772 141.979156,85.091705 
	C148.218887,84.611771 155.150284,84.068230 159.361511,77.405029 
z"/>
<path fill="#B3B8BD" opacity="1.000000" stroke="none" 
	d="
M136.764801,45.208496 
	C143.776154,51.368862 147.734528,58.847530 149.828232,67.520470 
	C150.316742,69.543991 151.679840,71.691788 153.269073,73.043304 
	C156.433075,75.734016 154.998810,77.608727 152.341248,78.569725 
	C148.312378,80.026604 144.079178,81.287758 139.838837,81.728737 
	C117.652641,84.036049 95.460495,84.318329 73.348320,80.774948 
	C71.562057,80.488708 69.735359,79.940636 68.143593,79.103340 
	C66.634560,78.309593 65.409729,76.975563 64.059914,75.879135 
	C65.134117,74.817436 66.366188,73.869431 67.236481,72.660889 
	C68.046387,71.536194 68.733849,70.190971 69.025391,68.845375 
	C72.804451,51.403355 83.240173,40.378345 100.533936,35.864178 
	C103.145630,35.182457 105.725899,35.006527 107.104797,31.637379 
	C108.106110,29.190825 110.577431,29.102333 112.539825,31.878920 
	C113.576889,33.346252 115.453735,34.346226 117.129272,35.213768 
	C123.550285,38.538376 130.043335,41.723843 136.764801,45.208496 
M125.201607,44.141022 
	C123.293877,43.480045 121.386147,42.819069 119.478416,42.158092 
	C121.946800,46.420040 125.411934,49.604874 127.608368,53.504322 
	C130.066254,57.867943 131.617508,62.805023 133.090668,67.636658 
	C133.954636,70.470215 135.473419,71.762688 138.033020,70.809799 
	C139.078979,70.420410 140.189392,68.292252 140.092361,67.046936 
	C139.316284,57.088047 134.127838,49.768471 125.201607,44.141022 
z"/>
<path fill="#B3630D" opacity="1.000000" stroke="none" 
	d="
M30.975653,87.800453 
	C50.083000,87.716408 69.190514,87.555191 88.297585,87.597046 
	C93.769592,87.609032 94.853149,89.773201 93.408752,95.099686 
	C92.796379,97.357895 93.306595,99.920532 93.306595,102.490982 
	C88.876640,103.368263 83.350906,103.166237 79.458603,105.588715 
	C75.359367,108.139984 72.821045,113.199234 69.329842,117.496078 
	C62.790230,111.629700 58.515629,104.880623 54.951077,97.495117 
	C54.040920,95.609337 51.823505,93.702011 49.823177,93.117813 
	C43.938957,91.399338 37.862118,90.340401 31.462034,88.685974 
	C31.034138,88.165939 31.004894,87.983200 30.975653,87.800453 
z"/>
<path fill="#B56713" opacity="1.000000" stroke="none" 
	d="
M40.088253,46.219711 
	C51.529144,46.219711 62.970039,46.219711 74.015373,46.219711 
	C71.119400,53.272118 68.308388,60.242565 65.343269,67.146828 
	C65.043915,67.843887 63.827976,68.528206 63.013016,68.558311 
	C59.069744,68.703979 55.118126,68.623993 50.217934,68.623993 
	C51.645721,62.492764 52.902916,57.094105 54.271519,51.217037 
	C49.728325,50.187035 45.242428,49.170017 40.407425,47.757957 
	C40.068298,46.981846 40.078274,46.600777 40.088253,46.219711 
z"/>
<path fill="#BD762B" opacity="1.000000" stroke="none" 
	d="
M56.006172,34.724800 
	C67.099747,34.725197 77.694885,34.725197 88.290024,34.725197 
	C88.463486,35.166164 88.636955,35.607132 88.810425,36.048096 
	C86.103394,37.575489 83.499191,40.176884 80.671837,40.447571 
	C67.186775,41.738636 53.929428,40.152458 41.082710,34.724400 
	C45.891052,34.724400 50.699394,34.724400 56.006172,34.724800 
z"/>
<path fill="#BB7528" opacity="1.000000" stroke="none" 
	d="
M182.594574,83.148079 
	C182.551819,86.115456 182.721725,88.629890 182.449646,91.095558 
	C182.337250,92.114151 181.276657,93.028122 180.647308,93.989670 
	C179.928772,93.102135 178.603943,92.226395 178.586411,91.325233 
	C178.427994,83.178726 178.487122,75.027725 178.524094,66.878227 
	C178.526932,66.253403 178.827179,65.091805 179.022232,65.084679 
	C183.881699,64.907188 188.745621,64.851631 193.608765,64.774467 
	C193.398010,65.702072 193.479553,67.011246 192.898941,67.456047 
	C192.244064,67.957733 190.994095,67.714241 190.001572,67.738586 
	C181.715790,67.941795 181.715698,67.937881 183.153687,77.428543 
	C185.437454,77.428543 187.879318,77.255844 190.271393,77.525223 
	C191.073959,77.615601 191.749680,78.832176 192.483368,79.533997 
	C191.735931,80.014473 191.047623,80.713364 190.230042,80.934685 
	C187.723022,81.613350 185.166397,82.108795 182.594574,83.148079 
z"/>
<path fill="#B76D1C" opacity="1.000000" stroke="none" 
	d="
M254.179276,63.778763 
	C254.275391,72.554001 254.364594,81.329330 254.472015,90.104431 
	C254.502213,92.570999 254.177841,94.156601 250.871048,93.338402 
	C249.323135,92.955406 247.396835,94.470818 245.652084,94.445076 
	C240.390106,94.367424 237.901733,88.762955 238.873260,79.619362 
	C239.530670,73.431946 242.480774,70.819283 247.801666,71.746490 
	C248.578644,71.881882 249.330322,72.162369 250.843750,72.585350 
	C250.843750,69.710892 250.843750,67.302292 251.328247,64.448647 
	C252.601593,63.928650 253.390442,63.853706 254.179276,63.778763 
M250.849442,82.542648 
	C250.848907,81.712921 250.792908,80.878822 250.857819,80.054245 
	C251.089447,77.111145 249.832794,74.720047 246.897736,75.147224 
	C245.296906,75.380211 243.234802,77.747597 242.807816,79.500084 
	C242.165985,82.134308 242.377670,85.170334 243.025543,87.841736 
	C243.341309,89.143723 245.627121,91.005836 246.729919,90.826210 
	C248.236053,90.580902 249.773376,88.823624 250.701309,87.341377 
	C251.301804,86.382217 250.836868,84.756050 250.849442,82.542648 
z"/>
<path fill="#BD792F" opacity="1.000000" stroke="none" 
	d="
M229.731049,93.849869 
	C222.608887,95.348602 218.589920,92.656242 217.979416,86.014252 
	C217.724701,83.242989 217.299484,79.953468 218.491959,77.723030 
	C219.873047,75.139793 222.782257,72.089272 225.336243,71.779114 
	C227.882477,71.469917 231.729187,73.631203 233.383636,75.894859 
	C237.074265,80.944496 235.026611,89.658112 229.731049,93.849869 
M221.811432,86.049858 
	C223.162720,87.707367 224.250244,89.835968 225.985580,90.807571 
	C226.759460,91.240860 229.958084,89.518242 230.117416,88.477318 
	C230.651550,84.987717 230.653778,81.311188 230.111435,77.822556 
	C229.934265,76.682907 227.424683,75.103088 226.061737,75.178009 
	C224.718643,75.251846 222.827255,76.939590 222.342178,78.326851 
	C221.608612,80.424721 221.885773,82.875999 221.811432,86.049858 
z"/>
<path fill="#BE7B31" opacity="1.000000" stroke="none" 
	d="
M200.257141,92.738403 
	C195.748901,87.825150 195.981537,82.167252 197.947205,77.054535 
	C198.895004,74.589264 202.627487,71.824196 205.189041,71.733391 
	C207.774918,71.641716 212.053772,74.193916 212.771393,76.474892 
	C214.030304,80.476471 214.019806,85.391739 212.921692,89.490433 
	C211.547485,94.619743 206.323029,95.659485 200.257141,92.738403 
M202.581818,89.840424 
	C206.984039,91.693993 209.307007,90.867599 209.878525,86.846626 
	C210.246536,84.257515 210.422501,81.404144 209.679184,78.977112 
	C209.181335,77.351501 206.915390,75.225639 205.449417,75.232422 
	C203.994797,75.239136 201.488937,77.515816 201.319336,79.009834 
	C200.941986,82.334045 201.736008,85.791229 202.581818,89.840424 
z"/>
<path fill="#BB7527" opacity="1.000000" stroke="none" 
	d="
M288.280212,84.165985 
	C286.383545,84.259666 284.935455,84.353249 283.521942,84.444595 
	C283.411072,90.372246 285.707275,92.103088 290.730530,90.431320 
	C291.783875,90.080757 293.018463,90.274811 294.169556,90.217911 
	C293.458527,91.343330 293.012970,92.941986 291.991943,93.514793 
	C286.700653,96.483231 280.481689,93.534927 279.452057,87.486366 
	C278.985626,84.746330 279.008636,81.813026 279.416687,79.057297 
	C280.230652,73.560669 282.960632,71.455574 288.048004,71.792747 
	C292.619354,72.095718 294.789886,74.708176 295.006317,80.255363 
	C295.050140,81.378822 294.908386,82.509521 294.825806,84.165871 
	C292.626251,84.165871 290.677551,84.165871 288.280212,84.165985 
M283.718994,76.231735 
	C283.487488,77.601051 283.255981,78.970367 282.972473,80.647141 
	C285.979980,80.647141 288.376343,80.647141 290.772797,80.647141 
	C290.752472,74.984955 290.130463,74.530479 283.718994,76.231735 
z"/>
<path fill="#B76C1A" opacity="1.000000" stroke="none" 
	d="
M274.203400,89.720383 
	C273.558990,91.411438 272.914673,92.637550 272.270386,93.863663 
	C271.678833,92.690445 270.620239,91.534271 270.576691,90.341072 
	C270.389862,85.219978 270.402740,80.084389 270.589813,74.963104 
	C270.626282,73.964706 271.762482,73.006485 272.391418,72.029732 
	C272.994293,72.974426 274.081726,73.900841 274.118164,74.866898 
	C274.298920,79.657333 274.202362,84.458229 274.203400,89.720383 
z"/>
<path fill="#BE7B31" opacity="1.000000" stroke="none" 
	d="
M266.590698,80.548080 
	C265.435944,82.921814 259.638947,84.091972 258.724640,82.391693 
	C258.447845,81.876984 259.548309,79.836655 260.121063,79.791069 
	C262.192230,79.626228 264.307251,80.012917 266.590698,80.548080 
z"/>
<path fill="#CB9359" opacity="1.000000" stroke="none" 
	d="
M39.693611,46.098961 
	C40.078274,46.600777 40.068298,46.981846 40.044830,47.648682 
	C38.031647,47.579212 36.031952,47.223969 34.032257,46.868725 
	C34.072411,46.571888 34.112560,46.275047 34.152710,45.978207 
	C35.868130,45.978207 37.583549,45.978207 39.693611,46.098961 
z"/>
<path fill="#D9B38A" opacity="1.000000" stroke="none" 
	d="
M254.143982,63.435776 
	C253.390442,63.853706 252.601593,63.928650 251.416443,64.011230 
	C252.049637,63.710171 253.079147,63.401482 254.143982,63.435776 
z"/>
<path fill="#D9AE83" opacity="1.000000" stroke="none" 
	d="
M30.781269,87.576576 
	C31.004894,87.983200 31.034138,88.165939 31.071442,88.626160 
	C30.440166,88.650536 29.800827,88.397438 29.161488,88.144348 
	C29.636620,87.880463 30.111753,87.616577 30.781269,87.576576 
z"/>
<path fill="#F9F9FA" opacity="1.000000" stroke="none" 
	d="
M125.539963,44.288963 
	C134.127838,49.768471 139.316284,57.088047 140.092361,67.046936 
	C140.189392,68.292252 139.078979,70.420410 138.033020,70.809799 
	C135.473419,71.762688 133.954636,70.470215 133.090668,67.636658 
	C131.617508,62.805023 130.066254,57.867943 127.608368,53.504322 
	C125.411934,49.604874 121.946800,46.420040 119.478416,42.158092 
	C121.386147,42.819069 123.293877,43.480045 125.539963,44.288963 
z"/>
<path fill="#F9F3ED" opacity="1.000000" stroke="none" 
	d="
M250.849396,82.985703 
	C250.836868,84.756050 251.301804,86.382217 250.701309,87.341377 
	C249.773376,88.823624 248.236053,90.580902 246.729919,90.826210 
	C245.627121,91.005836 243.341309,89.143723 243.025543,87.841736 
	C242.377670,85.170334 242.165985,82.134308 242.807816,79.500084 
	C243.234802,77.747597 245.296906,75.380211 246.897736,75.147224 
	C249.832794,74.720047 251.089447,77.111145 250.857819,80.054245 
	C250.792908,80.878822 250.848907,81.712921 250.849396,82.985703 
z"/>
<path fill="#FBF7F3" opacity="1.000000" stroke="none" 
	d="
M221.772430,85.613480 
	C221.885773,82.875999 221.608612,80.424721 222.342178,78.326851 
	C222.827255,76.939590 224.718643,75.251846 226.061737,75.178009 
	C227.424683,75.103088 229.934265,76.682907 230.111435,77.822556 
	C230.653778,81.311188 230.651550,84.987717 230.117416,88.477318 
	C229.958084,89.518242 226.759460,91.240860 225.985580,90.807571 
	C224.250244,89.835968 223.162720,87.707367 221.772430,85.613480 
z"/>
<path fill="#FBF7F2" opacity="1.000000" stroke="none" 
	d="
M202.317215,89.517319 
	C201.736008,85.791229 200.941986,82.334045 201.319336,79.009834 
	C201.488937,77.515816 203.994797,75.239136 205.449417,75.232422 
	C206.915390,75.225639 209.181335,77.351501 209.679184,78.977112 
	C210.422501,81.404144 210.246536,84.257515 209.878525,86.846626 
	C209.307007,90.867599 206.984039,91.693993 202.317215,89.517319 
z"/>
<path fill="#F5EBE0" opacity="1.000000" stroke="none" 
	d="
M283.963440,75.899712 
	C290.130463,74.530479 290.752472,74.984955 290.772797,80.647141 
	C288.376343,80.647141 285.979980,80.647141 282.972473,80.647141 
	C283.255981,78.970367 283.487488,77.601051 283.963440,75.899712 
z"/>
</svg>